<?xml version="1.0" standalone="no"?>
<!DOCTYPE svg PUBLIC "-//W3C//DTD SVG 20010904//EN"
 "http://www.w3.org/TR/2001/REC-SVG-20010904/DTD/svg10.dtd">
<svg version="1.0" xmlns="http://www.w3.org/2000/svg"
 width="584.000000pt" height="266.000000pt"  viewBox="0 0 584.000000 266.000000"
 preserveAspectRatio="xMidYMid meet">

<g transform="translate(0.000000,266.000000) scale(0.100000,-0.100000)"
fill="#ffffff" stroke="none">
<path d="M1181 2429 c-378 -81 -687 -352 -817 -715 -182 -509 41 -1087 518
-1344 95 -51 261 -105 366 -121 205 -29 448 8 630 96 124 60 187 103 284 194
181 169 301 390 338 623 19 114 8 351 -20 458 -105 399 -402 693 -809 802
-116 31 -364 35 -490 7z m483 -74 c339 -88 604 -331 721 -658 49 -138 69 -267
62 -401 -39 -749 -830 -1216 -1501 -885 -263 130 -452 358 -543 654 -25 85
-27 101 -27 280 0 178 2 196 27 280 123 408 443 688 865 755 98 16 285 4 396
-25z"/>
<path d="M909 1796 c-115 -41 -183 -126 -196 -246 l-6 -61 94 3 94 3 6 42 c3
23 11 48 18 57 18 22 78 38 126 34 l40 -3 3 -263 c2 -224 0 -268 -14 -297 -18
-39 -60 -60 -102 -50 -41 9 -65 38 -71 88 l-6 42 -94 3 -94 3 7 -63 c10 -101
66 -187 151 -230 51 -27 165 -35 218 -16 63 23 124 78 157 142 l30 59 0 359 0
359 25 24 24 25 -187 0 c-127 -1 -199 -5 -223 -14z"/>
<path d="M1623 1790 c-63 -25 -143 -109 -161 -167 -8 -28 -12 -147 -12 -390 0
-339 -1 -351 -21 -377 l-20 -26 183 0 c141 0 195 4 230 16 99 33 175 135 180
244 l3 55 -92 3 -93 3 0 -40 c0 -28 -7 -48 -24 -68 -21 -24 -32 -28 -95 -31
l-71 -4 0 276 0 276 28 29 c61 67 162 30 162 -59 l0 -40 96 0 96 0 -7 58 c-13
107 -67 187 -158 233 -61 32 -157 35 -224 9z"/>
<path d="M2933 1546 c-44 -20 -65 -58 -114 -207 l-42 -127 19 -38 c37 -76 154
-106 241 -60 27 13 31 13 46 -1 11 -11 38 -17 80 -19 79 -4 83 0 126 119 40
112 46 123 71 130 33 8 34 -14 5 -97 -32 -87 -28 -119 15 -141 38 -20 58 -19
103 4 38 19 39 19 84 -1 53 -23 107 -21 167 7 43 21 96 87 96 120 0 30 -27 39
-46 16 -57 -68 -83 -90 -115 -96 -49 -9 -89 8 -89 39 0 24 2 25 50 19 47 -5
51 -4 85 30 56 56 46 125 -21 153 -27 11 -43 12 -74 4 -47 -13 -69 -41 -101
-133 -24 -69 -59 -117 -85 -117 -20 0 -17 27 11 110 21 62 23 77 12 99 -17 36
-60 55 -96 43 -16 -6 -34 -6 -43 -1 -26 14 -43 -11 -83 -119 -39 -107 -72
-149 -97 -124 -9 9 -3 36 20 104 36 105 39 133 16 142 -27 10 -49 -18 -78
-101 -15 -43 -32 -85 -39 -93 -24 -31 -62 -50 -102 -50 -53 0 -85 23 -85 59 0
39 67 222 90 245 27 27 51 14 48 -27 -2 -40 7 -57 32 -57 50 0 69 109 26 149
-30 28 -91 36 -133 17z m741 -218 c13 -22 -9 -48 -40 -48 -29 0 -32 25 -7 52
19 21 32 20 47 -4z"/>
<path d="M4052 1538 c-17 -17 -15 -45 4 -52 9 -3 34 -6 56 -6 28 0 39 -4 36
-12 -3 -7 -31 -89 -63 -181 -54 -155 -57 -169 -42 -184 13 -13 21 -14 39 -6
19 9 36 45 88 197 l65 186 52 0 c48 0 83 16 83 39 0 25 -31 31 -165 31 -96 0
-145 -4 -153 -12z"/>
<path d="M3170 1521 c-13 -25 -13 -27 6 -45 35 -36 87 0 64 44 -14 26 -56 26
-70 1z"/>
<path d="M4345 1423 c-12 -11 -15 -27 -12 -52 2 -21 -4 -59 -17 -94 -14 -41
-17 -60 -9 -68 21 -21 49 0 67 51 16 45 20 49 38 39 21 -11 21 -14 -4 -97 -10
-37 -10 -47 2 -70 20 -35 69 -49 107 -30 26 13 33 13 61 0 28 -14 36 -14 69
-1 31 12 43 13 62 3 19 -10 105 -13 152 -5 4 1 24 49 45 108 36 100 61 143 83
143 24 0 21 -29 -14 -126 -30 -85 -35 -107 -25 -119 32 -38 52 -15 99 117 37
102 63 136 90 119 12 -8 10 -21 -12 -81 -15 -39 -27 -81 -27 -93 0 -58 70 -93
128 -65 25 13 32 13 60 0 28 -14 36 -14 69 -1 33 13 42 13 66 1 62 -30 152 20
180 101 16 49 13 67 -13 67 -11 0 -29 -20 -49 -54 -30 -53 -64 -77 -82 -59 -6
6 5 50 27 115 21 58 34 112 31 121 -7 18 -52 23 -62 8 -3 -6 -18 -6 -38 0 -39
11 -93 -4 -107 -31 -5 -10 -24 -57 -41 -105 -21 -58 -39 -91 -56 -102 -42 -28
-48 -4 -18 79 35 99 31 127 -18 152 -35 17 -42 17 -75 4 -29 -11 -42 -11 -60
-2 -23 11 -121 12 -139 1 -6 -4 -25 -48 -43 -99 -38 -107 -54 -135 -82 -144
-39 -12 -39 11 -2 118 21 58 34 112 31 121 -7 18 -52 23 -62 8 -3 -6 -18 -6
-38 0 -39 11 -93 -4 -107 -31 -5 -10 -24 -56 -40 -103 -32 -87 -62 -129 -80
-111 -7 7 -3 30 10 69 32 93 24 119 -43 144 -15 6 -27 17 -27 25 0 18 -27 46
-45 46 -7 0 -21 -7 -30 -17z m362 -99 c10 -26 -35 -152 -59 -165 -39 -21 -44
4 -19 83 13 40 28 79 33 86 14 17 37 15 45 -4z m710 0 c10 -26 -35 -152 -59
-165 -36 -20 -41 3 -18 82 12 41 27 80 32 87 15 17 37 15 45 -4z"/>
</g>
</svg>
